<?xml version="1.0" encoding="UTF-8"?>
<svg version="1.1" xmlns="http://www.w3.org/2000/svg" width="1024" height="1024">
<path d="M0 0 C337.92 0 675.84 0 1024 0 C1024 337.92 1024 675.84 1024 1024 C686.08 1024 348.16 1024 0 1024 C0 686.08 0 348.16 0 0 Z " fill="" transform="translate(0,0)"/>
<path d="M0 0 C4.04390933 3.45021627 6.26828142 6.96202871 8.55078125 11.7265625 C8.85445114 12.35605804 9.15812103 12.98555359 9.47099304 13.63412476 C10.10522621 14.95453158 10.73438525 16.27738675 11.35864258 17.60253906 C12.31575343 19.63189823 13.29029192 21.6521665 14.26757812 23.671875 C19 33.56691797 19 33.56691797 19 37 C18.0925 37.70125 17.185 38.4025 16.25 39.125 C11.19153987 43.18854972 9.33913271 48.00663474 8.6171875 54.37890625 C8.32557916 63.38960406 9.93203364 69.39805046 14.875 76.8125 C20.29346333 82.3903299 26.36038742 85.05614377 34.125 85.1875 C37.24955967 85.03631163 39.96446372 84.65647411 43 84 C44.8169318 87.7526248 46.63163692 91.50631575 48.44433594 95.26098633 C49.06059497 96.5366684 49.67744885 97.8120633 50.29492188 99.0871582 C51.18518189 100.92583232 52.0732585 102.76554744 52.9609375 104.60546875 C53.49509277 105.71043701 54.02924805 106.81540527 54.57958984 107.95385742 C58.7455149 116.88789781 58.7455149 116.88789781 58 122 C54.13427581 126.68466109 49.72344467 128.94043453 44.3515625 131.4765625 C43.09110863 132.08685303 43.09110863 132.08685303 41.80519104 132.70947266 C39.0830955 134.02453067 36.35421177 135.32478468 33.625 136.625 C31.73563107 137.53470446 29.8467166 138.4453534 27.95825195 139.35693359 C22.64519277 141.91800688 17.32431055 144.46241334 12 147 C10.81293457 147.56589844 9.62586914 148.13179687 8.40283203 148.71484375 C1.14961642 152.16864205 1.14961642 152.16864205 -2.37060547 153.83837891 C-12.11104731 158.48326794 -21.73920573 163.35439774 -31.38265991 168.19631958 C-41.28022321 173.16455273 -51.20278482 178.05826394 -61.21777344 182.78662109 C-71.83742694 187.82563701 -82.32335932 193.13652562 -92.81884766 198.42797852 C-93.53696625 198.78915268 -94.25508484 199.15032684 -94.9949646 199.52244568 C-96.35199483 200.20505608 -97.70818007 200.88934973 -99.06338501 201.57557678 C-104.26209278 204.18889943 -108.10768205 205.62024399 -114 205 C-117.75061647 201.57086495 -120.05972747 196.67523116 -122 192 C-122 191.34 -122 190.68 -122 190 C-123.32837891 190.08701172 -123.32837891 190.08701172 -124.68359375 190.17578125 C-141.72750235 190.79652714 -156.09080825 185.81136837 -169.1875 174.8125 C-178.61812069 165.95835926 -186.32336852 152.42199142 -187.17700195 139.27368164 C-187.70996296 112.19459089 -187.70996296 112.19459089 -183 102 C-182.649375 101.13117188 -182.29875 100.26234375 -181.9375 99.3671875 C-178.89451868 92.4570841 -174.29172172 87.30962941 -169 82 C-168.37222656 81.34902344 -167.74445312 80.69804687 -167.09765625 80.02734375 C-160.91343874 74.07846644 -153.24701448 71.12468647 -145.40760803 67.95025635 C-138.34310332 65.0633188 -131.50413713 61.87987049 -124.69921875 58.4296875 C-123.66094437 57.90794952 -122.62266998 57.38621155 -121.55293274 56.84866333 C-118.2624943 55.19463691 -114.97479466 53.53526453 -111.6875 51.875 C-107.38036377 49.7028234 -103.07184662 47.53342201 -98.76171875 45.3671875 C-97.1672139 44.5657431 -97.1672139 44.5657431 -95.54049683 43.74810791 C-87.3874122 39.66392356 -79.17904612 35.70537524 -70.94328308 31.79110718 C-63.24211554 28.12866982 -55.61100016 24.34612629 -48 20.5 C-36.10229227 14.51153759 -24.13464274 8.68575576 -12.08935547 2.9987793 C-10.68274492 2.32637409 -9.2895719 1.6251948 -7.91064453 0.89770508 C-5.05521324 -0.4439025 -3.11436427 -0.44490918 0 0 Z " fill="#D61321" transform="translate(885,400)"/>
<path d="M0 0 C7.42474486 6.22766507 15.29729968 13.25612013 20.1875 21.6875 C20.30078125 24.3828125 20.30078125 24.3828125 20.1875 26.6875 C17.15333281 28.34744192 14.10900942 29.98783621 11.0625 31.625 C10.2065625 32.09357422 9.350625 32.56214844 8.46875 33.04492188 C-0.76048331 37.97901199 -0.76048331 37.97901199 -4.8125 37.6875 C-6.92774533 35.68342085 -8.43760665 33.94547514 -10.125 31.625 C-14.46136729 26.11690031 -18.45104005 21.87912289 -24.8125 18.6875 C-25.6065625 18.27886719 -26.400625 17.87023437 -27.21875 17.44921875 C-38.28951205 12.59742393 -51.57512078 13.304001 -62.80859375 17.296875 C-76.7303269 23.74178658 -83.24223656 33.8746349 -88.8125 47.6875 C-94.503631 64.33618174 -92.36888821 83.05558241 -84.8125 98.6875 C-78.60843677 109.36843737 -70.2590559 116.47697818 -58.34765625 120.02734375 C-45.81730563 122.36726558 -32.73416961 121.82467943 -21.51953125 115.3671875 C-10.62671865 107.88731993 -6.57882613 97.13596759 -3.8125 84.6875 C-17.0125 84.6875 -30.2125 84.6875 -43.8125 84.6875 C-45.02695591 82.25858818 -44.94174198 80.68030557 -44.9453125 77.96875 C-44.94660156 77.03675781 -44.94789063 76.10476563 -44.94921875 75.14453125 C-44.94535156 74.16871094 -44.94148437 73.19289063 -44.9375 72.1875 C-44.94136719 71.21167969 -44.94523438 70.23585938 -44.94921875 69.23046875 C-44.94792969 68.29847656 -44.94664062 67.36648438 -44.9453125 66.40625 C-44.94418457 65.54966797 -44.94305664 64.69308594 -44.94189453 63.81054688 C-44.8125 61.6875 -44.8125 61.6875 -43.8125 59.6875 C-34.72019199 59.64121937 -25.62792434 59.60565263 -16.53552437 59.58387566 C-12.3138425 59.57342536 -8.09224105 59.55924355 -3.87060547 59.53662109 C0.20127277 59.51493697 4.27307353 59.50294077 8.34500504 59.49774551 C9.90079087 59.49404176 11.45657232 59.48680954 13.01232529 59.47603989 C15.18653374 59.46158362 17.36041942 59.45951956 19.53466797 59.46044922 C20.77376923 59.456008 22.01287048 59.45156677 23.28952026 59.44699097 C26.1875 59.6875 26.1875 59.6875 28.1875 61.6875 C28.64961604 65.24805271 28.51944865 68.85049306 28.5 72.4375 C28.49262817 74.00443604 28.49262817 74.00443604 28.48510742 75.60302734 C28.22977336 92.52316429 23.87369786 108.31295048 13.1875 121.6875 C12.60355469 122.44675781 12.01960937 123.20601562 11.41796875 123.98828125 C0.47025759 137.33296495 -16.04864755 145.55444684 -32.8125 148.6875 C-37.09408766 149.09624661 -41.32595578 149.16602264 -45.625 149.125 C-46.76501465 149.11597656 -47.9050293 149.10695313 -49.07958984 149.09765625 C-70.15621895 148.66586871 -88.80119755 140.14765531 -103.42578125 124.9765625 C-121.33084349 104.707706 -125.34972736 81.14743478 -123.8125 54.6875 C-123.1313932 49.12933219 -121.66566934 43.97358959 -119.8125 38.6875 C-119.45027344 37.62789063 -119.08804688 36.56828125 -118.71484375 35.4765625 C-111.07721974 15.33394731 -95.80515689 0.26511186 -76.484375 -8.8046875 C-51.18325538 -19.19429619 -22.10445519 -16.38098018 0 0 Z " fill="#FDFDFD" transform="translate(658.8125,441.3125)"/>
<path d="M0 0 C12.52141397 10.64132179 19.91588007 24.67249253 22.2890625 40.8984375 C23.61079775 57.73698248 20.5149193 74.1176916 10.11328125 87.75 C7.92908747 90.24729928 5.66742721 92.58648437 3.2890625 94.8984375 C2.66386719 95.54425781 2.03867187 96.19007813 1.39453125 96.85546875 C-9.9607292 107.82823621 -26.03095893 111.4394453 -41.34985352 111.390625 C-57.66910891 110.87291292 -71.54492914 104.49267967 -83.390625 93.37109375 C-98.03849024 77.76149998 -99.4537689 59.316844 -98.89453125 39.05566406 C-98.55375999 33.19548589 -97.17978611 28.24219535 -94.7109375 22.8984375 C-94.3603125 22.02960938 -94.0096875 21.16078125 -93.6484375 20.265625 C-90.60545618 13.3555216 -86.00265922 8.20806691 -80.7109375 2.8984375 C-80.08316406 2.24746094 -79.45539062 1.59648437 -78.80859375 0.92578125 C-57.60526354 -19.4706569 -22.04543539 -17.08997729 0 0 Z " fill="#FDFDFD" transform="translate(796.7109375,479.1015625)"/>
<path d="M0 0 C8.04181076 6.14513673 14.82526894 13.26764134 20 22 C20.45375 22.74507813 20.9075 23.49015625 21.375 24.2578125 C24.1532284 29.2111013 24.1532284 29.2111013 23.60546875 32.03125 C21.02609176 35.19428164 17.55627439 35.91594813 13.75 37.125 C12.99847656 37.37636719 12.24695313 37.62773437 11.47265625 37.88671875 C9.9973316 38.37849363 8.51882391 38.86083478 7.03710938 39.33300781 C5.26103436 39.9145319 3.51023666 40.57215549 1.765625 41.2421875 C-1.36841834 42.10095079 -2.9775667 42.19563151 -6 41 C-7.51953125 38.99609375 -7.51953125 38.99609375 -8.8125 36.4375 C-13.85736805 27.45172994 -20.32167021 21.67871263 -30 18 C-40.92889515 15.10049721 -53.88600916 16.06559841 -64 21 C-75.85335694 27.90764594 -82.90260721 39.49256732 -86.875 52.375 C-89.85899349 65.9369824 -89.54577961 81.19924969 -84 94 C-83.45666016 95.3303125 -83.45666016 95.3303125 -82.90234375 96.6875 C-78.35705099 106.79499848 -71.03730929 114.74126131 -60.70703125 118.9296875 C-49.41897398 122.90036091 -37.32595016 123.59451365 -26.16796875 118.77734375 C-15.96093922 113.54117949 -10.25225842 106.44490102 -4 97 C2.56182055 97.50825662 7.90075644 99.2439705 13.9375 101.8125 C14.79923828 102.15603516 15.66097656 102.49957031 16.54882812 102.85351562 C17.36673828 103.19705078 18.18464844 103.54058594 19.02734375 103.89453125 C19.76718506 104.20237549 20.50702637 104.51021973 21.26928711 104.82739258 C23 106 23 106 23.84106445 107.93994141 C24.10621743 111.37674757 22.08875427 113.81354551 20.25 116.5625 C19.84096436 117.18020264 19.43192871 117.79790527 19.01049805 118.43432617 C7.97450787 134.56512997 -7.77059954 145.56859482 -26.97607422 149.39355469 C-31.30056747 150.15164165 -35.62697303 150.6326045 -40 151 C-40.78503906 151.0721875 -41.57007813 151.144375 -42.37890625 151.21875 C-61.30091414 152.08047332 -80.21344573 143.85229749 -94.1875 131.625 C-110.55112877 116.27115212 -120.34769488 97.84858292 -121.21875 75.14453125 C-121.79597906 51.52588035 -116.39149623 28.98518838 -99.78955078 11.32348633 C-94.11985788 5.52881923 -88.16691704 0.8639031 -81 -3 C-80.15179688 -3.45890625 -79.30359375 -3.9178125 -78.4296875 -4.390625 C-53.87778631 -16.55664171 -22.75850442 -15.74876154 0 0 Z " fill="#FDFDFD" transform="translate(200,440)"/>
<path d="M0 0 C11.74147169 10.20860123 20.15752243 23.52285455 21.41943359 39.33740234 C21.51592238 41.96512982 21.53708938 44.58156648 21.52734375 47.2109375 C21.54345703 48.10748047 21.55957031 49.00402344 21.57617188 49.92773438 C21.57681641 50.78302734 21.57746094 51.63832031 21.578125 52.51953125 C21.58110596 53.28966553 21.58408691 54.0597998 21.5871582 54.85327148 C21.46429443 55.48692627 21.34143066 56.12058105 21.21484375 56.7734375 C17.47292567 59.26804955 14.58391612 59.04115906 10.25512695 59.00048828 C9.44514252 59.00078033 8.63515808 59.00107239 7.80062866 59.00137329 C5.1221853 58.99997946 2.44401979 58.98441582 -0.234375 58.96875 C-2.09096627 58.96502006 -3.9475595 58.962173 -5.80415344 58.96017456 C-10.69175649 58.95253663 -15.57924077 58.93288675 -20.46679688 58.9107666 C-25.4537597 58.89031163 -30.4407417 58.88117359 -35.42773438 58.87109375 C-45.21359387 58.84964103 -54.99936518 58.81550313 -64.78515625 58.7734375 C-64.34942217 60.50860977 -63.90336578 62.24119149 -63.453125 63.97265625 C-63.2058667 64.93776123 -62.9586084 65.90286621 -62.70385742 66.8972168 C-60.17254718 74.82210808 -54.94393961 80.67519822 -47.78515625 84.7734375 C-39.57092582 88.69487843 -31.62850986 88.9503887 -23.03515625 86.0859375 C-17.38918989 83.82436564 -13.47211089 81.26523515 -10.00488281 76.14379883 C-7.78515625 73.7734375 -7.78515625 73.7734375 -4.94433594 73.20581055 C-3.34187012 73.24508667 -3.34187012 73.24508667 -1.70703125 73.28515625 C0.03320312 73.30932617 0.03320312 73.30932617 1.80859375 73.33398438 C3.01515625 73.37587891 4.22171875 73.41777344 5.46484375 73.4609375 C6.686875 73.48349609 7.90890625 73.50605469 9.16796875 73.52929688 C12.18482877 73.58821992 15.1992189 73.67044485 18.21484375 73.7734375 C19.55687499 79.44498336 18.10171008 81.90567234 15.2109375 86.859375 C7.24443328 98.48953576 -4.22746364 106.17649865 -17.78515625 109.7734375 C-22.76955179 110.68724335 -27.74029884 111.30802355 -32.78515625 111.7734375 C-33.52507812 111.84691406 -34.265 111.92039062 -35.02734375 111.99609375 C-49.75539605 112.72301479 -65.27367733 105.8208863 -76.34765625 96.4609375 C-87.79987208 85.25893815 -93.93722762 70.0875109 -94.11474609 54.17553711 C-94.10910645 53.30034424 -94.1034668 52.42515137 -94.09765625 51.5234375 C-94.0920166 50.60248291 -94.08637695 49.68152832 -94.08056641 48.73266602 C-93.79277061 32.48930048 -88.5139534 19.0146642 -77.78515625 6.7734375 C-76.96917969 5.83371094 -76.96917969 5.83371094 -76.13671875 4.875 C-56.73426718 -15.98491273 -21.93966133 -17.5394207 0 0 Z " fill="#FEFDFE" transform="translate(500.78515625,479.2265625)"/>
<path d="M0 0 C9.67355021 6.74384643 16.08016109 15.89270024 18.27209473 27.44873047 C19.17707284 34.69183927 18.96072391 42.0166173 18.94140625 49.3046875 C18.94275535 51.10164441 18.94469792 52.89860097 18.94720459 54.69555664 C18.95013827 58.44079095 18.945911 62.18592926 18.93652344 65.93115234 C18.92506367 70.73760505 18.93174039 75.54383596 18.94366837 80.35028076 C18.95087834 84.05106291 18.94860417 87.75179198 18.94341278 91.45257568 C18.9420773 93.22605414 18.94372046 94.99953739 18.94837189 96.77301025 C18.95343013 99.2407319 18.94574005 101.70808704 18.93457031 104.17578125 C18.93861877 104.91029007 18.94266724 105.64479889 18.94683838 106.40156555 C18.90432424 111.45114451 18.90432424 111.45114451 16.67578125 113.6796875 C14.18554687 113.93847656 14.18554687 113.93847656 11.08203125 113.9453125 C9.96957031 113.94789063 8.85710937 113.95046875 7.7109375 113.953125 C6.54433594 113.94539062 5.37773437 113.93765625 4.17578125 113.9296875 C3.00917969 113.93742188 1.84257812 113.94515625 0.640625 113.953125 C-0.47183594 113.95054687 -1.58429688 113.94796875 -2.73046875 113.9453125 C-3.75462891 113.94305664 -4.77878906 113.94080078 -5.83398438 113.93847656 C-8.32421875 113.6796875 -8.32421875 113.6796875 -10.32421875 111.6796875 C-10.57577515 108.73510742 -10.57577515 108.73510742 -10.57958984 104.91015625 C-10.5832103 104.21391647 -10.58683075 103.5176767 -10.59056091 102.80033875 C-10.59746356 101.28509839 -10.59995873 99.76983312 -10.59861374 98.25457764 C-10.59764885 95.84874722 -10.61058964 93.44336414 -10.62759399 91.03759766 C-10.67385194 84.19616266 -10.69843345 77.35476949 -10.70507812 70.51318359 C-10.71012239 66.32854004 -10.73452888 62.14435654 -10.77040482 57.95986938 C-10.7801456 56.37166113 -10.78256628 54.78338908 -10.77723312 53.19515991 C-10.60286567 39.01089733 -10.60286567 39.01089733 -17.03207397 26.75585938 C-22.83351786 21.27098918 -28.78826462 20.25406254 -36.58203125 20.43359375 C-43.83192365 21.08422512 -49.51548593 24.22409469 -54.32421875 29.6796875 C-58.25272762 35.85816054 -59.44135438 41.23652089 -59.49780273 48.52783203 C-59.50448975 49.20795349 -59.51117676 49.88807495 -59.51806641 50.58880615 C-59.53208107 52.06091676 -59.54398643 53.53304864 -59.55401421 55.0051918 C-59.57045931 57.33328317 -59.5936951 59.66121539 -59.61891174 61.98922729 C-59.68961502 68.60650695 -59.7499588 75.22384863 -59.80102539 81.84130859 C-59.83275881 85.89196819 -59.87400969 89.94243928 -59.92122078 93.99294662 C-59.93726329 95.53752138 -59.94957444 97.08213946 -59.95812798 98.62677383 C-59.97023889 100.78148911 -59.99436658 102.9357577 -60.02124023 105.09033203 C-60.03670143 106.93088669 -60.03670143 106.93088669 -60.05247498 108.80862427 C-60.32421875 111.6796875 -60.32421875 111.6796875 -62.32421875 113.6796875 C-64.81445313 113.93847656 -64.81445313 113.93847656 -67.91796875 113.9453125 C-69.03042969 113.94789063 -70.14289063 113.95046875 -71.2890625 113.953125 C-72.45566406 113.94539062 -73.62226563 113.93765625 -74.82421875 113.9296875 C-75.99082031 113.93742188 -77.15742188 113.94515625 -78.359375 113.953125 C-79.47183594 113.95054687 -80.58429688 113.94796875 -81.73046875 113.9453125 C-82.75462891 113.94305664 -83.77878906 113.94080078 -84.83398438 113.93847656 C-87.32421875 113.6796875 -87.32421875 113.6796875 -89.32421875 111.6796875 C-89.57590103 109.67441559 -89.57590103 109.67441559 -89.57818604 107.16271973 C-89.58382568 106.21206131 -89.58946533 105.26140289 -89.59527588 104.28193665 C-89.59122742 103.23563583 -89.58717896 102.18933502 -89.58300781 101.11132812 C-89.58651245 100.01209518 -89.59001709 98.91286224 -89.59362793 97.78031921 C-89.60245951 94.1321285 -89.59659099 90.48413033 -89.58984375 86.8359375 C-89.59118999 84.3100989 -89.59313017 81.78426056 -89.59564209 79.25842285 C-89.59859529 73.95887553 -89.59447901 68.65939777 -89.58496094 63.35986328 C-89.57407608 57.22842206 -89.57760156 51.09711383 -89.58861375 44.96567583 C-89.59877423 39.07314982 -89.59771034 33.18066524 -89.59185028 27.28813171 C-89.59051231 24.77780641 -89.59216661 22.26747774 -89.59680939 19.75715637 C-89.60186585 16.25402727 -89.59417663 12.75115664 -89.58300781 9.24804688 C-89.58705627 8.20174606 -89.59110474 7.15544525 -89.59527588 6.07743835 C-89.58963623 5.12677994 -89.58399658 4.17612152 -89.57818604 3.19665527 C-89.57743198 2.36779564 -89.57667793 1.538936 -89.57590103 0.68495941 C-89.32421875 -1.3203125 -89.32421875 -1.3203125 -87.32421875 -3.3203125 C-83.53075384 -3.77514017 -79.70430746 -3.644346 -75.88671875 -3.6328125 C-74.82388672 -3.64892578 -73.76105469 -3.66503906 -72.66601562 -3.68164062 C-71.13750977 -3.68260742 -71.13750977 -3.68260742 -69.578125 -3.68359375 C-68.64299072 -3.68657471 -67.70785645 -3.68955566 -66.74438477 -3.69262695 C-64.32421875 -3.3203125 -64.32421875 -3.3203125 -62.52783203 -1.99365234 C-60.63528906 0.63748143 -60.79450432 3.17991905 -60.63671875 6.3671875 C-60.53810547 8.13642578 -60.53810547 8.13642578 -60.4375 9.94140625 C-60.40011719 10.84503906 -60.36273438 11.74867188 -60.32421875 12.6796875 C-59.79054688 12.02742188 -59.256875 11.37515625 -58.70703125 10.703125 C-44.09181994 -6.44066958 -20.18780519 -11.46803051 0 0 Z " fill="#FDFDFD" transform="translate(373.32421875,473.3203125)"/>
<path d="M0 0 C8.10954169 5.30435431 13.08189541 12.99832988 15.63671875 22.32421875 C17.4249327 35.49547203 16.66902142 47.68344814 8.875 58.8125 C4.37830345 64.22213278 -1.94715321 68.7849028 -9 70 C-19.91275087 70.75965602 -27.76762446 70.03317553 -36.25 62.875 C-43.37730063 56.057582 -47.83685794 47.97472045 -48.30078125 37.94921875 C-48.32025296 36.52877392 -48.3237384 35.10803383 -48.3125 33.6875 C-48.30686035 32.93984375 -48.3012207 32.1921875 -48.29541016 31.421875 C-48.05781127 20.56289996 -44.67787071 12.38938333 -37.44140625 4.24609375 C-26.95994765 -5.78292779 -12.46068627 -6.41251691 0 0 Z " fill="#010101" transform="translate(774,495)"/>
<path d="M0 0 C1.11246094 -0.00257813 2.22492188 -0.00515625 3.37109375 -0.0078125 C4.53769531 -0.00007813 5.70429688 0.00765625 6.90625 0.015625 C8.07285156 0.00789063 9.23945313 0.00015625 10.44140625 -0.0078125 C11.55386719 -0.00523437 12.66632813 -0.00265625 13.8125 0 C14.83666016 0.00225586 15.86082031 0.00451172 16.91601562 0.00683594 C19.40625 0.265625 19.40625 0.265625 21.40625 2.265625 C21.65793228 4.27089691 21.65793228 4.27089691 21.66021729 6.78259277 C21.66585693 7.73325119 21.67149658 8.68390961 21.67730713 9.66337585 C21.67325867 10.70967667 21.66921021 11.75597748 21.66503906 12.83398438 C21.6685437 13.93321732 21.67204834 15.03245026 21.67565918 16.16499329 C21.68449076 19.813184 21.67862224 23.46118217 21.671875 27.109375 C21.67322124 29.6352136 21.67516142 32.16105194 21.67767334 34.68688965 C21.68062654 39.98643697 21.67651026 45.28591473 21.66699219 50.58544922 C21.65610733 56.71689044 21.65963281 62.84819867 21.670645 68.97963667 C21.68080548 74.87216268 21.67974159 80.76464726 21.67388153 86.65718079 C21.67254356 89.16750609 21.67419786 91.67783476 21.67884064 94.18815613 C21.6838971 97.69128523 21.67620788 101.19415586 21.66503906 104.69726562 C21.66908752 105.74356644 21.67313599 106.78986725 21.67730713 107.86787415 C21.67166748 108.81853256 21.66602783 109.76919098 21.66021729 110.74865723 C21.65946323 111.57751686 21.65870918 112.4063765 21.65793228 113.26035309 C21.40625 115.265625 21.40625 115.265625 19.40625 117.265625 C16.91601562 117.52441406 16.91601562 117.52441406 13.8125 117.53125 C12.70003906 117.53382813 11.58757812 117.53640625 10.44140625 117.5390625 C9.27480469 117.53132812 8.10820312 117.52359375 6.90625 117.515625 C5.73964844 117.52335938 4.57304687 117.53109375 3.37109375 117.5390625 C2.25863281 117.53648437 1.14617187 117.53390625 0 117.53125 C-1.02416016 117.52899414 -2.04832031 117.52673828 -3.10351562 117.52441406 C-5.59375 117.265625 -5.59375 117.265625 -7.59375 115.265625 C-7.84543228 113.26035309 -7.84543228 113.26035309 -7.84771729 110.74865723 C-7.85335693 109.79799881 -7.85899658 108.84734039 -7.86480713 107.86787415 C-7.86075867 106.82157333 -7.85671021 105.77527252 -7.85253906 104.69726562 C-7.8560437 103.59803268 -7.85954834 102.49879974 -7.86315918 101.36625671 C-7.87199076 97.718066 -7.86612224 94.07006783 -7.859375 90.421875 C-7.86072124 87.8960364 -7.86266142 85.37019806 -7.86517334 82.84436035 C-7.86812654 77.54481303 -7.86401026 72.24533527 -7.85449219 66.94580078 C-7.84360733 60.81435956 -7.84713281 54.68305133 -7.858145 48.55161333 C-7.86830548 42.65908732 -7.86724159 36.76660274 -7.86138153 30.87406921 C-7.86004356 28.36374391 -7.86169786 25.85341524 -7.86634064 23.34309387 C-7.8713971 19.83996477 -7.86370788 16.33709414 -7.85253906 12.83398438 C-7.85658752 11.78768356 -7.86063599 10.74138275 -7.86480713 9.66337585 C-7.85916748 8.71271744 -7.85352783 7.76205902 -7.84771729 6.78259277 C-7.84696323 5.95373314 -7.84620918 5.1248735 -7.84543228 4.27089691 C-7.25360871 -0.44444169 -3.92230163 0.00863943 0 0 Z " fill="#FEFEFE" transform="translate(244.59375,469.734375)"/>
<path d="M0 0 C6.28970061 4.39247944 11.31499315 9.72411091 14 17 C14.495 20.465 14.495 20.465 15 24 C-4.14 24 -23.28 24 -43 24 C-40.6683002 13.5073509 -37.09805314 6.03955868 -28 0 C-19.53497526 -4.75482241 -8.526176 -4.52099724 0 0 Z " fill="#030303" transform="translate(479,494)"/>
<path d="M0 0 C4.38868039 2.01002953 7.14723377 4.85409538 10 8.6875 C11.78864045 14.61237148 11.83000186 20.41234713 9.9375 26.3125 C6.78865584 30.68025158 3.15929816 34.28023395 -2 36 C-8.0386883 36.83374395 -12.26873956 36.00927027 -17.2734375 32.5 C-21.80205675 28.56563396 -23.8139609 24.19526139 -24.3125 18.3125 C-24.22235002 12.86343466 -22.27016371 8.33965851 -18.46875 4.421875 C-12.61242991 -0.57322155 -7.538064 -0.99060916 0 0 Z " fill="#FDFDFD" transform="translate(257,422)"/>
<path d="M0 0 C2.32509781 2.13802098 3.82167236 4.18598137 5.25 7 C5.78367187 8.0209375 5.78367187 8.0209375 6.328125 9.0625 C7 11 7 11 6 14 C2.9375 15.1875 2.9375 15.1875 0 16 C-0.86604534 14.23494565 -1.71748642 12.46271926 -2.5625 10.6875 C-3.03816406 9.70136719 -3.51382813 8.71523438 -4.00390625 7.69921875 C-5 5 -5 5 -4 2 C-1.9375 0.8125 -1.9375 0.8125 0 0 Z " fill="#FDF8F9" transform="translate(877,509)"/>
<path d="M0 0 C0.86883706 1.57533086 1.71959068 3.16064509 2.5625 4.75 C3.03816406 5.63171875 3.51382813 6.5134375 4.00390625 7.421875 C5.07998186 10.20701188 5.06528748 11.26980214 4 14 C2.35 14.33 0.7 14.66 -1 15 C-2.00508801 13.21118264 -3.00392736 11.41885304 -4 9.625 C-4.8353125 8.12839844 -4.8353125 8.12839844 -5.6875 6.6015625 C-7 4 -7 4 -7 2 C-4.35261084 0.5393715 -3.10551666 0 0 0 Z " fill="#FEF8F9" transform="translate(867,484)"/>
<path d="M0 0 C1.38671875 2.1796875 1.38671875 2.1796875 2.6875 4.875 C3.34298828 6.20144531 3.34298828 6.20144531 4.01171875 7.5546875 C5 10 5 10 5 13 C3.02 13.66 1.04 14.32 -1 15 C-2.00484204 13.04414675 -3.00373805 11.08523763 -4 9.125 C-4.556875 8.03445313 -5.11375 6.94390625 -5.6875 5.8203125 C-7 3 -7 3 -7 1 C-3.375 -1.125 -3.375 -1.125 0 0 Z " fill="#FDF9F9" transform="translate(843,433)"/>
<path d="M0 0 C0.86604534 1.76505435 1.71748642 3.53728074 2.5625 5.3125 C3.27599609 6.79169922 3.27599609 6.79169922 4.00390625 8.30078125 C5 11 5 11 4 14 C2.02 14.33 0.04 14.66 -2 15 C-2.83790789 13.21046815 -3.67019396 11.41830305 -4.5 9.625 C-5.19609375 8.12839844 -5.19609375 8.12839844 -5.90625 6.6015625 C-7 4 -7 4 -7 2 C-4.35261084 0.5393715 -3.10551666 0 0 0 Z " fill="#FEFAFB" transform="translate(855,458)"/>
<path d="M0 0 C2.29013653 3.4352048 2.17842973 4.985331 2 9 C-5.09677419 10.4516129 -5.09677419 10.4516129 -8 9 C-9.3125 6.5625 -9.3125 6.5625 -10 4 C-8.00285823 0.00571646 -4.17733988 -0.54964998 0 0 Z M-3 10 C-1 11 -1 11 -1 11 Z " fill="#D1080C" transform="translate(891,533)"/>
<path d="M0 0 C0 1.65 0 3.3 0 5 C-1.98 5.66 -3.96 6.32 -6 7 C-6.66 5.02 -7.32 3.04 -8 1 C-4.93251126 -0.86240388 -3.40254489 -1.2151946 0 0 Z " fill="#FEF9F9" transform="translate(891,535)"/>
<path d="M0 0 C-3.20945602 2.8503026 -5.49988548 3.43451699 -9.75 3.6875 C-10.73484375 3.75324219 -11.7196875 3.81898438 -12.734375 3.88671875 C-13.48203125 3.92410156 -14.2296875 3.96148438 -15 4 C-15.33 3.34 -15.66 2.68 -16 2 C-13.89829344 1.46932659 -11.79352402 0.95077143 -9.6875 0.4375 C-7.92986328 0.00244141 -7.92986328 0.00244141 -6.13671875 -0.44140625 C-3 -1 -3 -1 0 0 Z " fill="#CD080D" transform="translate(779,588)"/>
<path d="M0 0 C0 0.66 0 1.32 0 2 C-1.3921875 2.680625 -1.3921875 2.680625 -2.8125 3.375 C-6.03921389 4.9421633 -6.03921389 4.9421633 -9 7 C-9.66 6.34 -10.32 5.68 -11 5 C-9.54462432 4.16151196 -8.08559627 3.32936066 -6.625 2.5 C-5.81289063 2.0359375 -5.00078125 1.571875 -4.1640625 1.09375 C-2 0 -2 0 0 0 Z " fill="#EE1624" transform="translate(789,445)"/>
</svg>
